<?xml version="1.0" encoding="iso-8859-1"?>
<!-- Generator: Adobe Illustrator 19.0.0, SVG Export Plug-In . SVG Version: 6.00 Build 0)  -->
<svg version="1.1" id="Layer_1" xmlns="http://www.w3.org/2000/svg" xmlns:xlink="http://www.w3.org/1999/xlink" x="0px" y="0px"
	 viewBox="0 0 502 502" style="enable-background:new 0 0 502 502;" xml:space="preserve">
<g>
	<g>
		<g>
			<rect x="5" y="5" style="fill:#1BD741;" width="492" height="492"/>
		</g>
		<g>
			<path d="M497,502H5c-2.761,0-5-2.239-5-5V5c0-2.761,2.239-5,5-5h492c2.761,0,5,2.239,5,5v492C502,499.761,499.761,502,497,502z
				 M10,492h482V10H10V492z"/>
		</g>
	</g>
	<g>
		<g>
			<path style="fill:#FFFFFF;" d="M78.947,428.243c-1.328,0-2.622-0.53-3.575-1.504c-1.251-1.279-1.723-3.128-1.238-4.851
				l23.522-83.562c-15.229-26.611-23.267-56.896-23.267-87.733c0-97.508,79.326-176.837,176.832-176.837
				s176.832,79.329,176.832,176.837c0,97.505-79.326,176.832-176.832,176.832c-29.594,0-58.83-7.453-84.685-21.569l-86.342,22.229
				C79.781,428.191,79.363,428.243,78.947,428.243z"/>
		</g>
		<g>
			<path d="M251.221,78.757c94.748,0,171.831,77.085,171.831,171.837c0,94.748-77.083,171.831-171.831,171.831
				c-29.525,0-58.434-7.558-84.005-21.907l-88.269,22.725l24.095-85.597C87.545,311.32,79.39,281.363,79.39,250.594
				C79.39,155.842,156.473,78.757,251.221,78.757 M251.221,68.757c-100.262,0-181.831,81.572-181.831,181.837
				c0,31,7.903,61.462,22.89,88.38l-22.958,81.56c-0.969,3.444-0.025,7.143,2.476,9.701c1.905,1.949,4.494,3.009,7.15,3.009
				c0.831,0,1.668-0.104,2.493-0.316l84.447-21.741c26.155,13.907,55.568,21.239,85.334,21.239
				c100.262,0,181.831-81.569,181.831-181.831C433.053,150.329,351.484,68.757,251.221,68.757L251.221,68.757z"/>
		</g>
	</g>
	<g>
		<path style="fill:#1BD741;" d="M171.729,369.259l5.255,3.21c22.299,13.611,47.97,20.806,74.237,20.806
			c78.676,0,142.685-64.006,142.685-142.681c0-78.68-64.01-142.685-142.685-142.685s-142.686,64.006-142.686,142.685
			c0,27.412,7.791,54.032,22.53,76.984l3.542,5.514l-13.879,49.294L171.729,369.259z"/>
	</g>
	<g>
		<g>
			<path style="fill:#1BD741;" d="M369.716,330c7.021-10.442,12.699-21.859,16.785-34"/>
		</g>
		<g>
			<path d="M369.712,335c-0.959,0-1.929-0.275-2.785-0.851c-2.292-1.541-2.9-4.647-1.36-6.939
				c6.849-10.187,12.298-21.225,16.195-32.805c0.881-2.618,3.718-4.026,6.333-3.144c2.617,0.881,4.025,3.716,3.144,6.333
				c-4.182,12.426-10.027,24.268-17.374,35.195C372.9,334.225,371.321,335,369.712,335z"/>
		</g>
	</g>
	<g>
		<g>
			<path style="fill:#1BD741;" d="M393.907,250.594c0-78.68-64.01-142.685-142.685-142.685s-142.686,64.006-142.686,142.685
				c0,27.412,7.791,54.032,22.53,76.984l3.542,5.514l-13.879,49.294l51.001-13.126l5.255,3.21
				c22.299,13.611,47.97,20.806,74.237,20.806c32.62,0,62.719-11.003,86.779-29.492"/>
		</g>
		<g>
			<path d="M251.221,398.275c-27.186,0-53.758-7.448-76.842-21.539l-3.452-2.109l-48.953,12.599
				c-1.73,0.445-3.571-0.067-4.821-1.347c-1.25-1.279-1.723-3.129-1.238-4.851l13.27-47.128l-2.327-3.622
				c-15.258-23.76-23.323-51.314-23.323-79.686c0-81.434,66.251-147.686,147.686-147.686s147.686,66.251,147.686,147.686
				c0,2.761-2.239,5-5,5s-5-2.239-5-5c0-75.92-61.766-137.686-137.686-137.686s-137.686,61.766-137.686,137.686
				c0,26.452,7.517,52.138,21.737,74.282l3.542,5.513c0.773,1.204,0.994,2.681,0.606,4.058l-11.525,40.931l42.587-10.96
				c1.308-0.336,2.698-0.13,3.853,0.576l5.255,3.21c21.513,13.131,46.283,20.073,71.63,20.073c30.552,0,59.506-9.84,83.733-28.457
				c2.188-1.682,5.328-1.272,7.011,0.918c1.682,2.189,1.271,5.329-0.918,7.011C315.058,387.719,283.997,398.275,251.221,398.275z"/>
		</g>
	</g>
	<g>
		<path style="fill:#FFFFFF;" d="M202.952,170.617l-11.149-0.611c-3.506-0.19-6.938,0.98-9.584,3.278
			c-5.409,4.698-14.053,13.769-16.705,25.598c-3.958,17.634,2.156,39.225,17.991,60.817c15.836,21.592,45.345,56.134,97.521,70.889
			c16.816,4.754,30.042,1.549,40.247-4.977c8.086-5.171,13.658-13.468,15.667-22.851l1.776-8.313
			c0.569-2.646-0.775-5.325-3.232-6.459l-37.679-17.369c-2.447-1.128-5.351-0.416-6.996,1.719l-14.792,19.177
			c-1.117,1.449-3.031,2.024-4.76,1.417c-10.126-3.563-44.064-17.774-62.683-53.642c-0.811-1.555-0.611-3.447,0.538-4.77
			l14.137-16.357c1.445-1.671,1.808-4.016,0.939-6.046l-16.241-38.001C207.084,172.093,205.143,170.733,202.952,170.617
			L202.952,170.617z"/>
		<path d="M296.589,337.872c-5.442,0-11.089-0.823-16.923-2.473c-59.097-16.712-90.028-58.885-100.193-72.744
			c-16.49-22.486-23.18-45.523-18.838-64.869c2.998-13.375,12.756-23.458,18.305-28.278c3.64-3.162,8.312-4.754,13.134-4.496
			l11.152,0.611c4.061,0.219,7.719,2.781,9.321,6.528l16.241,38.001c1.61,3.758,0.921,8.188-1.756,11.282l-13.801,15.969
			c17.507,33.329,49.029,46.979,59.162,50.625l14.458-18.745c3.088-4.006,8.454-5.325,13.048-3.206l37.678,17.369
			c4.617,2.129,7.095,7.084,6.027,12.051l-1.774,8.305c-2.301,10.748-8.812,20.23-17.863,26.019
			C315.583,335.185,306.42,337.872,296.589,337.872z M191.057,174.985c-2.05,0-4.009,0.727-5.559,2.073
			c-4.623,4.015-12.732,12.332-15.105,22.917c-3.7,16.486,2.388,36.645,17.145,56.766c9.661,13.172,39.062,53.259,94.85,69.035
			c13.503,3.818,25.681,2.346,36.192-4.377c6.816-4.359,11.727-11.535,13.472-19.686l1.775-8.31
			c0.078-0.363-0.102-0.719-0.436-0.874l-37.678-17.369c-0.333-0.152-0.719-0.059-0.942,0.23l-14.793,19.179
			c-2.441,3.166-6.611,4.404-10.376,3.081c-10.438-3.672-46.002-18.565-65.463-56.055c-1.774-3.401-1.305-7.468,1.201-10.353
			l14.129-16.348c0.195-0.226,0.243-0.534,0.126-0.807l-16.242-38.005c-0.116-0.271-0.377-0.457-0.664-0.472
			c-0.003,0-0.006,0-0.009,0L191.057,174.985z"/>
	</g>
	<path d="M456,47h-43c-2.761,0-5-2.239-5-5s2.239-5,5-5h43c2.761,0,5,2.239,5,5S458.761,47,456,47z"/>
	<path d="M374,47h-14c-2.761,0-5-2.239-5-5s2.239-5,5-5h14c2.761,0,5,2.239,5,5S376.761,47,374,47z"/>
</g>
<g>
</g>
<g>
</g>
<g>
</g>
<g>
</g>
<g>
</g>
<g>
</g>
<g>
</g>
<g>
</g>
<g>
</g>
<g>
</g>
<g>
</g>
<g>
</g>
<g>
</g>
<g>
</g>
<g>
</g>
</svg>
